<svg xmlns="http://www.w3.org/2000/svg" viewBox="0 0 64 64"><path d="M31.9 59c-2.9 0-5.2-2.3-5.2-5.2v-3.3h10.4v3.3c0 2.8-2.3 5.2-5.2 5.2z" fill="none" stroke="#fff" stroke-width="4.252" stroke-linecap="round" stroke-linejoin="round" stroke-miterlimit="10"/><g fill="none" stroke="#fff" stroke-width="4.252" stroke-linecap="round" stroke-linejoin="round" stroke-miterlimit="10"><path d="M35.7 13.2c-1.2-.3-2.5-.5-3.8-.5-1.3 0-2.6.2-3.8.5-6.8 1.7-11.9 7.9-11.9 15.2v14.7l-3 7.4h37.3l-3-7.4V28.4c0-4.3-1.8-8.2-4.6-11.1-1.9-2-4.4-3.4-7.2-4.1z"/><path d="M35.7 9v4.2c-1.2-.3-2.5-.5-3.8-.5-1.3 0-2.6.2-3.8.5V9c0-2.1 1.7-3.8 3.8-3.8 1 0 2 .4 2.7 1.1.7.7 1.1 1.6 1.1 2.7z"/></g><path fill="none" stroke="#fff" stroke-width="4.252" stroke-linecap="round" stroke-linejoin="round" stroke-miterlimit="10" d="M16.2 43.1h31.4"/></svg>