<?xml version="1.0" encoding="utf-8"?><svg width="480" height="385" viewBox="0 0 480 385" xmlns="http://www.w3.org/2000/svg" xmlns:xlink="http://www.w3.org/1999/xlink"><svg viewBox="0 0 120 120" width="120" height="120" id="catalog-black" x="120"><path fill="none" stroke="#1D1D1B" stroke-width="4.252" stroke-linecap="round" stroke-linejoin="round" stroke-miterlimit="10" d="M5 10.1h111v100.4H5zM5 39.5h111"/><circle cx="21.9" cy="24.8" r="4.7"/><circle cx="37.2" cy="24.8" r="4.7"/><circle cx="52.5" cy="24.8" r="4.7"/><path fill="none" stroke="#1D1D1B" stroke-width="4.252" stroke-linecap="round" stroke-linejoin="round" stroke-miterlimit="10" d="M19.5 58.6h78.4M19.5 76.2h47M19.5 93.7h34.2"/></svg><svg viewBox="0 0 120 120" width="120" height="120" id="catalog-brand" x="360"><path fill="none" stroke="#264C5C" stroke-width="4.252" stroke-linecap="round" stroke-linejoin="round" stroke-miterlimit="10" d="M5 10.1h111v100.4H5zM5 39.5h111"/><circle fill="#264C5C" stroke="#264C5C" stroke-miterlimit="10" cx="21.9" cy="24.8" r="4.7"/><circle fill="#264C5C" stroke="#264C5C" stroke-miterlimit="10" cx="37.2" cy="24.8" r="4.7"/><circle fill="#264C5C" stroke="#264C5C" stroke-miterlimit="10" cx="52.5" cy="24.8" r="4.7"/><path fill="none" stroke="#264C5C" stroke-width="4.252" stroke-linecap="round" stroke-linejoin="round" stroke-miterlimit="10" d="M19.5 58.6h78.4M19.5 76.2h47M19.5 93.7h34.2"/></svg><svg viewBox="0 0 120 120" width="120" height="120" id="catalog-white" y="120"><path fill="none" stroke="#FFF" stroke-width="4.252" stroke-linecap="round" stroke-linejoin="round" stroke-miterlimit="10" d="M5 10.1h111v100.4H5zM5 39.5h111"/><circle fill="#FFF" stroke="#FFF" stroke-miterlimit="10" cx="21.9" cy="24.8" r="4.7"/><circle fill="#FFF" stroke="#FFF" stroke-miterlimit="10" cx="37.2" cy="24.8" r="4.7"/><circle fill="#FFF" stroke="#FFF" stroke-miterlimit="10" cx="52.5" cy="24.8" r="4.7"/><path fill="none" stroke="#FFF" stroke-width="4.252" stroke-linecap="round" stroke-linejoin="round" stroke-miterlimit="10" d="M19.5 58.6h78.4M19.5 76.2h47M19.5 93.7h34.2"/></svg><svg viewBox="0 0 20 20" width="20" height="20" id="edit-brand-20" x="456" y="240"><path fill="none" stroke="#264C5C" stroke-width="1.3" stroke-linecap="round" stroke-linejoin="round" stroke-miterlimit="10" d="M16.9.9l2.5 2.5L4.6 18.2l-3.5.9 1-3.4zM4.6 18.2l-2.5-2.5M17.9 4.8l-2.5-2.4"/></svg><svg viewBox="0 0 25 25" width="25" height="25" id="expand-brand-25" x="350" y="360"><path fill="none" stroke="#264C5C" stroke-width="2" stroke-linecap="round" stroke-linejoin="round" stroke-miterlimit="10" d="M20.5 5.9l-7.7 7.8M20.5 5.9h-4M20.5 5.9v4M4.6 2.3H24v15.9H4.6z"/><path fill="none" stroke="#264C5C" stroke-width="2" stroke-linecap="round" stroke-linejoin="round" stroke-miterlimit="10" d="M1 9.2h15.5V22H1z"/></svg><svg viewBox="0 0 32 32" width="32" height="32" id="favorite-danger" x="424" y="240"><path fill="none" stroke="#E84C3D" stroke-width="2" stroke-linecap="round" stroke-linejoin="round" stroke-miterlimit="10" d="M16.1 2l4.6 9.4L31 12.9l-7.5 7.2 1.8 10.3-9.2-4.8-9.3 4.8 1.8-10.3-7.5-7.2 10.3-1.5z"/></svg><svg viewBox="0 0 25 25" width="25" height="25" id="favorite-danger-25" x="50" y="360"><path fill="none" stroke="#E84C3D" stroke-width="2" stroke-linecap="round" stroke-linejoin="round" stroke-miterlimit="10" d="M12.5 1.7l3.6 7.2L24 10l-5.7 5.6 1.3 8-7.1-3.8-7.1 3.8 1.4-8L1 10l7.9-1.1z"/></svg><svg viewBox="0 0 25 25" width="25" height="25" id="favorite-danger-25-active" x="25" y="360"><path fill="#E84C3D" stroke="#E84C3D" stroke-width="2" stroke-linecap="round" stroke-linejoin="round" stroke-miterlimit="10" d="M12.5 1.7l3.6 7.2L24 10l-5.7 5.6 1.3 8-7.1-3.8-7.1 3.8 1.4-8L1 10l7.9-1.1z"/></svg><svg viewBox="0 0 25 25" width="25" height="25" id="favorite-danger-25-hover" y="360"><path fill="none" stroke="#B44C3D" stroke-width="2.2" stroke-linecap="round" stroke-linejoin="round" stroke-miterlimit="10" d="M12.5 1.7l3.6 7.2L24 10l-5.7 5.6 1.3 8-7.1-3.8-7.1 3.8 1.4-8L1 10l7.9-1.1z"/></svg><svg viewBox="0 0 25 25" width="25" height="25" id="fb-black" x="442" y="304"><path d="M10.7 1.3C11.6.4 13 0 14.3 0h4.1v4.4h-2.7c-.6 0-1.1.4-1.2 1v2.9h3.9c-.1 1.4-.3 2.8-.5 4.2h-3.5v12.4H9.3V12.4H6.8V8.2h2.5V4.1c.2-1 .6-2.1 1.4-2.8z"/></svg><svg viewBox="0 0 25 25" width="25" height="25" id="fb-brand" x="417" y="304"><path fill="#264C5C" d="M10.7 1.3C11.6.4 13 0 14.3 0h4.1v4.4h-2.7c-.6 0-1.1.4-1.2 1v2.9h3.9c-.1 1.4-.3 2.8-.5 4.2h-3.5v12.4H9.3V12.4H6.8V8.2h2.5V4.1c.2-1 .6-2.1 1.4-2.8z"/></svg><svg viewBox="0 0 25 25" width="25" height="25" id="fb-white" x="125" y="360"><path fill="#FFF" d="M10.7 1.3C11.6.4 13 0 14.3 0h4.1v4.4h-2.7c-.6 0-1.1.4-1.2 1v2.9h3.9c-.1 1.4-.3 2.8-.5 4.2h-3.5v12.4H9.3V12.4H6.8V8.2h2.5V4.1c.2-1 .6-2.1 1.4-2.8z"/></svg><svg viewBox="0 0 32 32" width="32" height="32" id="geo-brand" x="392" y="272"><path fill="none" stroke="#264C5C" stroke-width="2" stroke-linecap="round" stroke-linejoin="round" stroke-miterlimit="10" d="M27 12.4C27 18.5 15.9 31 15.9 31S4.8 18.5 4.8 12.4s5-11.1 11.1-11.1S27 6.2 27 12.4z"/><circle fill="none" stroke="#264C5C" stroke-width="2" stroke-linecap="round" stroke-linejoin="round" stroke-miterlimit="10" cx="15.9" cy="12.5" r="5"/></svg><svg viewBox="0 0 20 20" width="20" height="20" id="geo-brand-20" x="360" y="336"><path fill="none" stroke="#264C5C" stroke-width="2" stroke-linecap="round" stroke-linejoin="round" stroke-miterlimit="10" d="M16.7 7.9c0 3.8-6.9 11.5-6.9 11.5S3 11.6 3 7.9 6.1 1 9.9 1s6.8 3 6.8 6.9z"/><circle fill="none" stroke="#264C5C" stroke-width="2" stroke-linecap="round" stroke-linejoin="round" stroke-miterlimit="10" cx="9.9" cy="7.9" r="3.1"/></svg><svg viewBox="0 0 25 25" width="25" height="25" id="geo-brand-25" x="100" y="360"><path fill="none" stroke="#264C5C" stroke-width="2" stroke-linecap="round" stroke-linejoin="round" stroke-miterlimit="10" d="M21 9.6c0 4.7-8.5 14.2-8.5 14.2S4 14.3 4 9.6s3.8-8.5 8.5-8.5S21 4.9 21 9.6z"/><circle fill="none" stroke="#264C5C" stroke-width="2" stroke-linecap="round" stroke-linejoin="round" stroke-miterlimit="10" cx="12.5" cy="9.7" r="3.8"/></svg><svg viewBox="0 0 32 32" width="32" height="32" id="geo-white" x="392" y="240"><path fill="none" stroke="#FFF" stroke-width="2" stroke-linecap="round" stroke-linejoin="round" stroke-miterlimit="10" d="M27 12.4C27 18.5 15.9 31 15.9 31S4.8 18.5 4.8 12.4s5-11.1 11.1-11.1S27 6.2 27 12.4z"/><circle fill="none" stroke="#FFF" stroke-width="2" stroke-linecap="round" stroke-linejoin="round" stroke-miterlimit="10" cx="15.9" cy="12.5" r="5"/></svg><svg viewBox="0 0 25 25" width="25" height="25" id="instagram-black" x="150" y="360"><path d="M17.7 1H7.3C3.8 1 1 3.8 1 7.3v10.3C1 21.2 3.8 24 7.3 24h10.3c3.5 0 6.3-2.8 6.3-6.3V7.3C24 3.8 21.2 1 17.7 1zM22 17.7c0 2.3-2 4.3-4.3 4.3H7.3C5 22 3 20 3 17.7V7.3C3 5 5 3 7.3 3h10.3C20 3 22 5 22 7.3v10.4z"/><path d="M12.5 6.6c-3.3 0-5.9 2.7-5.9 5.9 0 3.3 2.7 5.9 5.9 5.9s5.9-2.7 5.9-5.9c0-3.3-2.6-5.9-5.9-5.9zm0 9.8c-2.1 0-3.9-1.7-3.9-3.9 0-2.1 1.7-3.9 3.9-3.9s3.9 1.7 3.9 3.9c0 2.1-1.8 3.9-3.9 3.9zM18.7 4.8c-.4 0-.8.2-1.1.4-.3.3-.4.7-.4 1.1 0 .4.2.8.4 1.1.3.3.7.4 1.1.4.4 0 .8-.2 1.1-.4.3-.3.4-.7.4-1.1 0-.4-.2-.8-.4-1.1-.3-.2-.7-.4-1.1-.4z"/></svg><svg viewBox="0 0 25 25" width="25" height="25" id="instagram-brand" x="200" y="360"><g fill="#264C5C"><path d="M17.7 1H7.3C3.8 1 1 3.8 1 7.3v10.3C1 21.2 3.8 24 7.3 24h10.3c3.5 0 6.3-2.8 6.3-6.3V7.3C24 3.8 21.2 1 17.7 1zM22 17.7c0 2.3-2 4.3-4.3 4.3H7.3C5 22 3 20 3 17.7V7.3C3 5 5 3 7.3 3h10.3C20 3 22 5 22 7.3v10.4z"/><path d="M12.5 6.6c-3.3 0-5.9 2.7-5.9 5.9 0 3.3 2.7 5.9 5.9 5.9s5.9-2.7 5.9-5.9c0-3.3-2.6-5.9-5.9-5.9zm0 9.8c-2.1 0-3.9-1.7-3.9-3.9 0-2.1 1.7-3.9 3.9-3.9s3.9 1.7 3.9 3.9c0 2.1-1.8 3.9-3.9 3.9zM18.7 4.8c-.4 0-.8.2-1.1.4-.3.3-.4.7-.4 1.1 0 .4.2.8.4 1.1.3.3.7.4 1.1.4.4 0 .8-.2 1.1-.4.3-.3.4-.7.4-1.1 0-.4-.2-.8-.4-1.1-.3-.2-.7-.4-1.1-.4z"/></g></svg><svg viewBox="0 0 25 25" width="25" height="25" id="instagram-white" x="392" y="304"><g fill="#FFF"><path d="M17.7 1H7.3C3.8 1 1 3.8 1 7.3v10.3C1 21.2 3.8 24 7.3 24h10.3c3.5 0 6.3-2.8 6.3-6.3V7.3C24 3.8 21.2 1 17.7 1zM22 17.7c0 2.3-2 4.3-4.3 4.3H7.3C5 22 3 20 3 17.7V7.3C3 5 5 3 7.3 3h10.3C20 3 22 5 22 7.3v10.4z"/><path d="M12.5 6.6c-3.3 0-5.9 2.7-5.9 5.9 0 3.3 2.7 5.9 5.9 5.9s5.9-2.7 5.9-5.9c0-3.3-2.6-5.9-5.9-5.9zm0 9.8c-2.1 0-3.9-1.7-3.9-3.9 0-2.1 1.7-3.9 3.9-3.9s3.9 1.7 3.9 3.9c0 2.1-1.8 3.9-3.9 3.9zM18.7 4.8c-.4 0-.8.2-1.1.4-.3.3-.4.7-.4 1.1 0 .4.2.8.4 1.1.3.3.7.4 1.1.4.4 0 .8-.2 1.1-.4.3-.3.4-.7.4-1.1 0-.4-.2-.8-.4-1.1-.3-.2-.7-.4-1.1-.4z"/></g></svg><svg viewBox="0 0 120 120" width="120" height="120" id="list-black" x="360" y="120"><path fill="none" stroke="#000" stroke-width="4.252" stroke-linecap="round" stroke-linejoin="round" stroke-miterlimit="10" d="M4.5 9h23.2v23.2H4.5zM44.1 20.6h72.2M4.5 48.4h23.2v23.2H4.5zM44.1 60h72.2M4.5 87.8h23.2V111H4.5zM44.1 99.4h72.2M12.2 56.3l3.9 6.5M32.9 41.2L16.1 62.8"/></svg><svg viewBox="0 0 120 120" width="120" height="120" id="list-brand"><path fill="none" stroke="#264C5C" stroke-width="4.252" stroke-linecap="round" stroke-linejoin="round" stroke-miterlimit="10" d="M4.5 9h23.2v23.2H4.5zM44.1 20.6h72.2M4.5 48.4h23.2v23.2H4.5zM44.1 60h72.2M4.5 87.8h23.2V111H4.5zM44.1 99.4h72.2M12.2 56.3l3.9 6.5M32.9 41.2L16.1 62.8"/></svg><svg viewBox="0 0 120 120" width="120" height="120" id="list-white" x="240" y="240"><path fill="none" stroke="#FFF" stroke-width="4.252" stroke-linecap="round" stroke-linejoin="round" stroke-miterlimit="10" d="M4.5 9h23.2v23.2H4.5zM44.1 20.6h72.2M4.5 48.4h23.2v23.2H4.5zM44.1 60h72.2M4.5 87.8h23.2V111H4.5zM44.1 99.4h72.2M12.2 56.3l3.9 6.5M32.9 41.2L16.1 62.8"/></svg><svg viewBox="0 0 120 120" width="120" height="120" id="mail-black" x="120" y="240"><g fill="none" stroke="#1D1D1B" stroke-width="4.252" stroke-linecap="round" stroke-linejoin="round" stroke-miterlimit="10"><path d="M74.6 38.3c1.8-9.4 10-16.5 19.9-16.5 11.2 0 20.3 9.1 20.3 20.3 0 11.2-9.1 20.3-20.3 20.3-5.7 0-10.9-2.4-14.6-6.2-3.5-3.6-5.7-8.6-5.7-14.1 0-1.3.1-2.6.4-3.8z"/><path d="M94.5 62.3v22.2L60.4 70.8l19.5-14.6c3.7 3.8 8.9 6.1 14.6 6.1z"/><path d="M94.5 91.9c0 2.2-1.8 4-4 4h-81c-2.2 0-4-1.8-4-4v-7.4l34.1-13.7L50 78.6l10.4-7.8 34.1 13.7v7.4z"/><path d="M5.5 44.8v-2.5c0-2.2 1.8-4 4-4h65.1c-.2 1.2-.4 2.5-.4 3.8 0 5.5 2.2 10.4 5.7 14.1L60.4 70.8 50 78.6l-10.4-7.8L6.7 46.1c-.5-.4-.9-.8-1.2-1.3z"/><path d="M5.5 42.3v2.5c-1.5-2.7.3-6.4 3.8-6.4h.1c-2.1-.1-3.9 1.7-3.9 3.9zM5.5 84.5V44.8c.3.5.7 1 1.2 1.4l32.9 24.6L5.5 84.5z"/></g><g fill="#1D1D1B"><path d="M87.5 49.5V38.6L85 41.1l-1.8-1.9 4.7-4.8h2.8v15h-3.2zM93.3 47.5l1.8-2.2c1 1.1 2.4 1.6 4 1.6 1.8 0 2.8-1 2.8-2.2 0-1.3-1-2.2-2.7-2.2-1.2 0-2.3.4-3.2 1.2l-2.2-.6v-8.6h10.3v2.8H97V41c.7-.7 1.9-1.3 3.3-1.3 2.5 0 4.8 1.8 4.8 4.9 0 3.2-2.4 5.2-6 5.2-2.6-.1-4.5-.9-5.8-2.3z"/></g></svg><svg viewBox="0 0 120 120" width="120" height="120" id="mail-brand" y="240"><g fill="none" stroke="#264C5C" stroke-width="4.252" stroke-linecap="round" stroke-linejoin="round" stroke-miterlimit="10"><path d="M74.6 38.3c1.8-9.4 10-16.5 19.9-16.5 11.2 0 20.3 9.1 20.3 20.3 0 11.2-9.1 20.3-20.3 20.3-5.7 0-10.9-2.4-14.6-6.2-3.5-3.6-5.7-8.6-5.7-14.1 0-1.3.1-2.6.4-3.8z"/><path d="M94.5 62.3v22.2L60.4 70.8l19.5-14.6c3.7 3.8 8.9 6.1 14.6 6.1z"/><path d="M94.5 91.9c0 2.2-1.8 4-4 4h-81c-2.2 0-4-1.8-4-4v-7.4l34.1-13.7L50 78.6l10.4-7.8 34.1 13.7v7.4z"/><path d="M5.5 44.8v-2.5c0-2.2 1.8-4 4-4h65.1c-.2 1.2-.4 2.5-.4 3.8 0 5.5 2.2 10.4 5.7 14.1L60.4 70.8 50 78.6l-10.4-7.8L6.7 46.1c-.5-.4-.9-.8-1.2-1.3z"/><path d="M5.5 42.3v2.5c-1.5-2.7.3-6.4 3.8-6.4h.1c-2.1-.1-3.9 1.7-3.9 3.9zM5.5 84.5V44.8c.3.5.7 1 1.2 1.4l32.9 24.6L5.5 84.5z"/></g><g fill="#264C5C" stroke="#264C5C"><path d="M87.5 49.5V38.6L85 41.1l-1.8-1.9 4.7-4.8h2.8v15h-3.2zM93.3 47.5l1.8-2.2c1 1.1 2.4 1.6 4 1.6 1.8 0 2.8-1 2.8-2.2 0-1.3-1-2.2-2.7-2.2-1.2 0-2.3.4-3.2 1.2l-2.2-.6v-8.6h10.3v2.8H97V41c.7-.7 1.9-1.3 3.3-1.3 2.5 0 4.8 1.8 4.8 4.9 0 3.2-2.4 5.2-6 5.2-2.6-.1-4.5-.9-5.8-2.3z"/></g></svg><svg viewBox="0 0 120 120" width="120" height="120" id="mail-white" x="240" y="120"><g fill="none" stroke="#FFF" stroke-width="4.252" stroke-linecap="round" stroke-linejoin="round" stroke-miterlimit="10"><path d="M74.6 38.3c1.8-9.4 10-16.5 19.9-16.5 11.2 0 20.3 9.1 20.3 20.3 0 11.2-9.1 20.3-20.3 20.3-5.7 0-10.9-2.4-14.6-6.2-3.5-3.6-5.7-8.6-5.7-14.1 0-1.3.1-2.6.4-3.8z"/><path d="M94.5 62.3v22.2L60.4 70.8l19.5-14.6c3.7 3.8 8.9 6.1 14.6 6.1z"/><path d="M94.5 91.9c0 2.2-1.8 4-4 4h-81c-2.2 0-4-1.8-4-4v-7.4l34.1-13.7L50 78.6l10.4-7.8 34.1 13.7v7.4z"/><path d="M5.5 44.8v-2.5c0-2.2 1.8-4 4-4h65.1c-.2 1.2-.4 2.5-.4 3.8 0 5.5 2.2 10.4 5.7 14.1L60.4 70.8 50 78.6l-10.4-7.8L6.7 46.1c-.5-.4-.9-.8-1.2-1.3z"/><path d="M5.5 42.3v2.5c-1.5-2.7.3-6.4 3.8-6.4h.1c-2.1-.1-3.9 1.7-3.9 3.9zM5.5 84.5V44.8c.3.5.7 1 1.2 1.4l32.9 24.6L5.5 84.5z"/></g><g fill="#FFF" stroke="#FFF"><path d="M87.5 49.5V38.6L85 41.1l-1.8-1.9 4.7-4.8h2.8v15h-3.2zM93.3 47.5l1.8-2.2c1 1.1 2.4 1.6 4 1.6 1.8 0 2.8-1 2.8-2.2 0-1.3-1-2.2-2.7-2.2-1.2 0-2.3.4-3.2 1.2l-2.2-.6v-8.6h10.3v2.8H97V41c.7-.7 1.9-1.3 3.3-1.3 2.5 0 4.8 1.8 4.8 4.9 0 3.2-2.4 5.2-6 5.2-2.6-.1-4.5-.9-5.8-2.3z"/></g></svg><svg viewBox="0 0 32 32" width="32" height="32" id="menu" x="360" y="272"><path d="M32 12H0V9h32v3zm-16 9H0v3h16v-3z" fill="#fff"/></svg><svg viewBox="0 0 32 32" width="32" height="32" id="messages-white" x="360" y="240"><path fill="none" stroke="#FFF" stroke-width="2" stroke-linecap="round" stroke-linejoin="round" stroke-miterlimit="10" d="M9.9 11.5h12M6.7 15.6h15.2M13.5 19.6h8.4"/><g fill="none" stroke="#FFF" stroke-width="2" stroke-linecap="round" stroke-linejoin="round" stroke-miterlimit="10"><path d="M25.8 21.1V7.9h-23v15.6h3.9L8.9 27l2.3-3.5h14.6z"/><path d="M29.4 4.1v17h-3.6V7.9H6.7V4.1z"/></g></svg><svg viewBox="0 0 32 32" width="32" height="32" id="notices-white" x="424" y="272"><path fill="none" stroke="#FFF" stroke-width="2" stroke-linecap="round" stroke-linejoin="round" stroke-miterlimit="10" d="M16.4 31H15c-1.2 0-2.2-1-2.2-2.2v-2.5h5.8v2.5c0 1.2-1 2.2-2.2 2.2z"/><g fill="none" stroke="#FFF" stroke-width="2" stroke-linecap="round" stroke-linejoin="round" stroke-miterlimit="10"><path d="M17.8 5.5c-.7-.2-1.4-.3-2.1-.3-.7 0-1.4.1-2.1.3C9.8 6.5 7 9.9 7 14v8.2l-1.7 4.1h20.8l-1.7-4.1V14c0-2.4-1-4.6-2.6-6.2-1-1.1-2.4-1.9-4-2.3z"/><path d="M15.2 1.1h1c.9 0 1.6.7 1.6 1.6v2.8c-.7-.2-1.4-.3-2.1-.3-.7 0-1.4.1-2.1.3V2.7c0-.9.7-1.6 1.6-1.6z"/></g><path fill="none" stroke="#FFF" stroke-width="2" stroke-linecap="round" stroke-linejoin="round" stroke-miterlimit="10" d="M7 22.2h17.4"/></svg><svg viewBox="0 0 15 10" width="15" height="10" id="preload-white-15" x="456" y="260"><path fill="none" stroke="#FFF" stroke-width="1.6" stroke-linecap="round" stroke-linejoin="round" stroke-miterlimit="10" d="M9 9H5.8C3.7 9 2 7.3 2 5.2v-.4C2 2.7 3.7 1 5.8 1H9c2.1 0 3.8 1.7 3.8 3.8v.3C12.9 7.3 11.2 9 9 9z"/><ellipse fill="none" stroke="#FFF" stroke-width="1.6" stroke-linecap="round" stroke-linejoin="round" stroke-miterlimit="10" cx="7.4" cy="5" rx="2.1" ry="1.9"/></svg><svg viewBox="0 0 20 15" width="20" height="15" id="preload-white-20" x="456" y="272"><path fill="none" stroke="#FFF" stroke-width="1.6" stroke-linecap="round" stroke-linejoin="round" stroke-miterlimit="10" d="M15.2 14.1H4.8c-2.1 0-3.8-1.7-3.8-3.8V4.7C1 2.6 2.7.9 4.8.9h10.3c2.1 0 3.8 1.7 3.8 3.8v5.5c.1 2.2-1.6 3.9-3.7 3.9z"/><ellipse fill="none" stroke="#FFF" stroke-width="1.6" stroke-linecap="round" stroke-linejoin="round" stroke-miterlimit="10" cx="10" cy="7.5" rx="3.4" ry="3.2"/></svg><svg viewBox="0 0 25 25" width="25" height="25" id="preload-white-25" x="225" y="360"><path fill="none" stroke="#FFF" stroke-width="1.6" stroke-linecap="round" stroke-linejoin="round" stroke-miterlimit="10" d="M19.2 21H5.9C3.2 21 1 18.7 1 15.9V8.5c0-2.8 2.2-5.1 4.9-5.1h13.2c2.7 0 4.9 2.3 4.9 5.1v7.3c.1 2.9-2.1 5.2-4.8 5.2z"/><ellipse fill="none" stroke="#FFF" stroke-width="1.6" stroke-linecap="round" stroke-linejoin="round" stroke-miterlimit="10" cx="12.6" cy="12.2" rx="4.4" ry="4.3"/></svg><svg viewBox="0 0 25 25" width="25" height="25" id="roll-brand-25" x="250" y="360"><path fill="none" stroke="#264C5C" stroke-width="2" stroke-linecap="round" stroke-linejoin="round" stroke-miterlimit="10" d="M18.1 17.4h5.7V1.7H1.5v15.7h5.7"/><g fill="none" stroke="#264C5C" stroke-width="2" stroke-linecap="round" stroke-linejoin="round" stroke-miterlimit="10"><path d="M15.4 12.9l-2.8-2.8-2.8 2.8M12.6 10.1v12.7"/></g></svg><svg viewBox="0 0 25 25" width="25" height="25" id="twitter-black" x="275" y="360"><path d="M24.4 5.3c-.9.4-1.8.6-2.7.8 1-.6 1.7-1.5 2.1-2.6-.9.5-2 .9-3 1.2-.9-.9-2.1-1.5-3.5-1.5-2.6 0-4.8 2.1-4.8 4.8 0 .4 0 .7.1 1.1-4-.2-7.5-2.1-9.9-5-.4.5-.7 1.4-.7 2.2 0 1.7.8 3.1 2.1 4-.8 0-1.5-.2-2.2-.6v.1c0 2.3 1.6 4.3 3.8 4.7-.4.1-.8.2-1.3.2-.3 0-.6 0-.9-.1.6 1.9 2.4 3.3 4.5 3.3-1.6 1.3-3.7 2-5.9 2-.4 0-.8 0-1.1-.1C3.2 21.2 5.7 22 8.4 22 17.2 22 22 14.7 22 8.4v-.6c.9-.7 1.7-1.5 2.4-2.5z"/></svg><svg viewBox="0 0 25 25" width="25" height="25" id="twitter-brand" x="300" y="360"><path fill="#264C5C" d="M24.4 5.3c-.9.4-1.8.6-2.7.8 1-.6 1.7-1.5 2.1-2.6-.9.5-2 .9-3 1.2-.9-.9-2.1-1.5-3.5-1.5-2.6 0-4.8 2.1-4.8 4.8 0 .4 0 .7.1 1.1-4-.2-7.5-2.1-9.9-5-.4.5-.7 1.4-.7 2.2 0 1.7.8 3.1 2.1 4-.8 0-1.5-.2-2.2-.6v.1c0 2.3 1.6 4.3 3.8 4.7-.4.1-.8.2-1.3.2-.3 0-.6 0-.9-.1.6 1.9 2.4 3.3 4.5 3.3-1.6 1.3-3.7 2-5.9 2-.4 0-.8 0-1.1-.1C3.2 21.2 5.7 22 8.4 22 17.2 22 22 14.7 22 8.4v-.6c.9-.7 1.7-1.5 2.4-2.5z"/></svg><svg viewBox="0 0 25 25" width="25" height="25" id="twitter-white" x="325" y="360"><path fill="#FFF" d="M24.4 5.3c-.9.4-1.8.6-2.7.8 1-.6 1.7-1.5 2.1-2.6-.9.5-2 .9-3 1.2-.9-.9-2.1-1.5-3.5-1.5-2.6 0-4.8 2.1-4.8 4.8 0 .4 0 .7.1 1.1-4-.2-7.5-2.1-9.9-5-.4.5-.7 1.4-.7 2.2 0 1.7.8 3.1 2.1 4-.8 0-1.5-.2-2.2-.6v.1c0 2.3 1.6 4.3 3.8 4.7-.4.1-.8.2-1.3.2-.3 0-.6 0-.9-.1.6 1.9 2.4 3.3 4.5 3.3-1.6 1.3-3.7 2-5.9 2-.4 0-.8 0-1.1-.1C3.2 21.2 5.7 22 8.4 22 17.2 22 22 14.7 22 8.4v-.6c.9-.7 1.7-1.5 2.4-2.5z"/></svg><svg viewBox="0 0 120 120" width="120" height="120" id="user-messages-black" x="240"><path fill="none" stroke="#000" stroke-width="4.252" stroke-linecap="round" stroke-linejoin="round" stroke-miterlimit="10" d="M80.4 24.3h25.8M73.4 33h32.8M88 41.8h18.2M114.7 16.5v33.7H83.1l-4.9 7.6-4.8-7.6h-8.5V16.5z"/><path d="M24 71.8c2.2 6.9 4.4 13.8 6.6 21 .9-2.6 1.7-4.8 2.5-7 .1-.3-.2-.8-.3-1.1-.6-1.2-1.3-2.4-1.8-3.6-.8-2.3.2-3.8 2.5-4.3 1-.2 2.1-.2 3.1 0 2.3.5 3.2 2 2.4 4.2-.4 1.3-1.2 2.5-1.8 3.7-.2.4-.3.9-.2 1.3.7 2.2 1.5 4.3 2.4 6.8 2.3-7.2 4.5-14 6.7-20.9 2 1.1 3.8 2.2 5.8 3.1 2.4 1.1 4.8 2.2 7.4 2.8 4.3 1 6.4 3.8 6.8 8 .2 3-.1 6.1-.2 9.2 0 .9-.6 1.4-1.4 1.8-5.2 2.8-10.7 4.5-16.5 5.6-12.6 2.2-25 1.4-37-3.2-1.9-.7-3.7-1.7-5.6-2.6-.4-.2-.8-.7-.9-1.2-.6-3.8-.9-7.7 0-11.6.7-3 2.6-5 5.6-5.8 4.6-1.2 9-3.2 13-5.8.2-.1.5-.2.9-.4z"/><path fill="none" stroke="#000" stroke-width="4.252" stroke-linecap="round" stroke-linejoin="round" stroke-miterlimit="10" d="M47.4 61.6c-.7 3.3-1.8 6.4-4.4 8.8-5.7 5.2-15 3.9-19-2.9-1.1-1.8-1.4-4.1-2.4-6-1-1.8-2.4-3.4-2.8-5.6-.2-1.1-.5-2.1-.6-3.2-.1-1.7.3-2.2 1.9-2.8-1-3-.8-6 .2-9 1.5-4.6 7.9-11.1 15-11 4.3 0 8 1.5 10.7 5 .2.2.4.5.7.6 2.3.7 3.4 2.4 4 4.5.9 3.3.5 6.7 0 10.1-.1.4.1 1 .3 1.3.8 1.1.7 2.2.4 3.4-.5 1.8-1 3.7-1.8 5.4-.3.7-1.2 1.1-1.8 1.7-.2-.2-.3-.3-.4-.3z"/></svg><svg viewBox="0 0 120 120" width="120" height="120" id="user-messages-brand" x="120" y="120"><path fill="none" stroke="#264C5C" stroke-width="4.252" stroke-linecap="round" stroke-linejoin="round" stroke-miterlimit="10" d="M80.4 24.3h25.8M73.4 33h32.8M88 41.8h18.2M78.2 57.8l-4.8-7.6h-8.5V16.5h49.8v33.7H83.1z"/><path fill="#264C5C" d="M24 71.8c2.2 6.9 4.4 13.8 6.6 21 .9-2.6 1.7-4.8 2.5-7 .1-.3-.2-.8-.3-1.1-.6-1.2-1.3-2.4-1.8-3.6-.8-2.3.2-3.8 2.5-4.3 1-.2 2.1-.2 3.1 0 2.3.5 3.2 2 2.4 4.2-.4 1.3-1.2 2.5-1.8 3.7-.2.4-.3.9-.2 1.3.7 2.2 1.5 4.3 2.4 6.8 2.3-7.2 4.5-14 6.7-20.9 2 1.1 3.8 2.2 5.8 3.1 2.4 1.1 4.8 2.2 7.4 2.8 4.3 1 6.4 3.8 6.8 8 .2 3-.1 6.1-.2 9.2 0 .9-.6 1.4-1.4 1.8-5.2 2.8-10.7 4.5-16.5 5.6-12.6 2.2-25 1.4-37-3.2-1.9-.7-3.7-1.7-5.6-2.6-.4-.2-.8-.7-.9-1.2-.6-3.8-.9-7.7 0-11.6.7-3 2.6-5 5.6-5.8 4.6-1.2 9-3.2 13-5.8.2-.1.5-.2.9-.4z"/><path fill="none" stroke="#264C5C" stroke-width="4.252" stroke-linecap="round" stroke-linejoin="round" stroke-miterlimit="10" d="M47.4 61.6c-.7 3.3-1.8 6.4-4.4 8.8-5.7 5.2-15 3.9-19-2.9-1.1-1.8-1.4-4.1-2.4-6-1-1.8-2.4-3.4-2.8-5.6-.2-1.1-.5-2.1-.6-3.2-.1-1.7.3-2.2 1.9-2.8-1-3-.8-6 .2-9 1.5-4.6 7.9-11.1 15-11 4.3 0 8 1.5 10.7 5 .2.2.4.5.7.6 2.3.7 3.4 2.4 4 4.5.9 3.3.5 6.7 0 10.1-.1.4.1 1 .3 1.3.8 1.1.7 2.2.4 3.4-.5 1.8-1 3.7-1.8 5.4-.3.7-1.2 1.1-1.8 1.7-.2-.2-.3-.3-.4-.3z"/></svg><svg viewBox="0 0 32 32" width="32" height="32" id="user-white" x="360" y="304"><path fill="none" stroke="#FFF" stroke-width="2" stroke-linecap="round" stroke-linejoin="round" stroke-miterlimit="10" d="M20.4 13.7c0 2.8-2 5.7-4.4 5.7s-4.4-2.8-4.4-5.7 2-4.3 4.4-4.3 4.4 1.5 4.4 4.3zM20.4 21.5c-1 1.8-2.6 3.1-4.4 3.1-1.8 0-3.4-1.3-4.4-3.1M6.6 24.9l5-3.4M25.4 24.9l-5-3.4"/><circle fill="none" stroke="#FFF" stroke-width="2" stroke-linecap="round" stroke-linejoin="round" stroke-miterlimit="10" cx="16" cy="16" r="13"/></svg><svg viewBox="0 0 25 25" width="25" height="25" id="vk-black" x="175" y="360"><path d="M24.9 18.6c0-.1-.1-.1-.1-.2-.4-.8-1.3-1.7-2.5-2.9-.6-.5-.9-.9-1.1-1.1-.3-.3-.3-.7-.2-1.1.1-.3.5-.8 1.2-1.7.4-.5.6-.8.8-1.1 1.5-2 2.2-3.3 2-3.8l-.1-.1c-.1-.1-.2-.1-.4-.2s-.5-.1-.8 0H19.3l-.1.1c-.1.1-.1.1-.1.2-.4 1-.9 2-1.4 2.9-.3.5-.6 1-.9 1.4-.3.4-.5.7-.7.9-.2.2-.3.3-.5.4-.1.1-.3.2-.3.1-.1 0-.2 0-.2-.1l-.3-.3c-.1-.1-.1-.3-.1-.5V11v-.6-.5-1.1-.9-.7-.6c0-.1-.1-.3-.1-.4-.1-.1-.1-.2-.3-.3-.2.1-.3.1-.5 0-.5-.1-1-.2-1.8-.2-1.6 0-2.7.1-3.1.3l-.5.5c-.1.1-.2.2 0 .3.5 0 .8.2 1.1.5l.1.2c.1.1.1.3.2.6v2.5c0 .5-.1.8-.1 1.1 0 .3-.1.5-.2.6-.1.2-.1.3-.2.3 0 0 0 .1-.1.1s-.2.1-.4.1c-.1 0-.3-.1-.4-.2-.2-.1-.4-.3-.5-.5-.2-.2-.4-.5-.6-.9-.2-.4-.5-.8-.7-1.4l-.2-.4-.5-1c-.2-.5-.4-.9-.6-1.4-.1-.2-.2-.3-.3-.4h-.1s-.1-.1-.2-.1-.2-.1-.3-.1H.8c-.4 0-.6.1-.7.2l-.1.1v.2c0 .1 0 .2.1.4.5 1.2 1.1 2.4 1.7 3.5.6 1.1 1.1 2.1 1.6 2.7.5.7.9 1.3 1.4 2 .5.6.8 1 .9 1.2.1.2.3.3.3.4l.3.3c.2.2.5.5.9.7.4.3.9.6 1.3.9.5.3 1.1.5 1.7.7.7.2 1.3.2 1.9.2h1.5c.3 0 .5-.1.7-.3l.1-.1c0-.1.1-.1.1-.2v-.4c0-.4 0-.7.1-1 .1-.3.1-.5.2-.7.1-.2.2-.3.3-.4l.2-.2h.1c.2-.1.5 0 .7.2.3.2.5.5.8.8.2.3.5.6.9 1 .3.4.7.7.9.8l.3.2c.2.1.4.2.7.3.3.1.5.1.7.1l3.3-.1c.3 0 .6-.1.8-.2.2-.1.3-.2.3-.4v-.4c.1-.1.1-.2.1-.3z"/></svg><svg viewBox="0 0 25 25" width="25" height="25" id="vk-brand" x="75" y="360"><path fill="#264C5C" d="M24.9 18.6c0-.1-.1-.1-.1-.2-.4-.8-1.3-1.7-2.5-2.9-.6-.5-.9-.9-1.1-1.1-.3-.3-.3-.7-.2-1.1.1-.3.5-.8 1.2-1.7.4-.5.6-.8.8-1.1 1.5-2 2.2-3.3 2-3.8l-.1-.1c-.1-.1-.2-.1-.4-.2s-.5-.1-.8 0H19.3l-.1.1c-.1.1-.1.1-.1.2-.4 1-.9 2-1.4 2.9-.3.5-.6 1-.9 1.4-.3.4-.5.7-.7.9-.2.2-.3.3-.5.4-.1.1-.3.2-.3.1-.1 0-.2 0-.2-.1l-.3-.3c-.1-.1-.1-.3-.1-.5V11v-.6-.5-1.1-.9-.7-.6c0-.1-.1-.3-.1-.4-.1-.1-.1-.2-.3-.3-.2.1-.3.1-.5 0-.5-.1-1-.2-1.8-.2-1.6 0-2.7.1-3.1.3l-.5.5c-.1.1-.2.2 0 .3.5 0 .8.2 1.1.5l.1.2c.1.1.1.3.2.6v2.5c0 .5-.1.8-.1 1.1 0 .3-.1.5-.2.6-.1.2-.1.3-.2.3 0 0 0 .1-.1.1s-.2.1-.4.1c-.1 0-.3-.1-.4-.2-.2-.1-.4-.3-.5-.5-.2-.2-.4-.5-.6-.9-.2-.4-.5-.8-.7-1.4l-.2-.4-.5-1c-.2-.5-.4-.9-.6-1.4-.1-.2-.2-.3-.3-.4h-.1s-.1-.1-.2-.1-.2-.1-.3-.1H.8c-.4 0-.6.1-.7.2l-.1.1v.2c0 .1 0 .2.1.4.5 1.2 1.1 2.4 1.7 3.5.6 1.1 1.1 2.1 1.6 2.7.5.7.9 1.3 1.4 2 .5.6.8 1 .9 1.2.1.2.3.3.3.4l.3.3c.2.2.5.5.9.7.4.3.9.6 1.3.9.5.3 1.1.5 1.7.7.7.2 1.3.2 1.9.2h1.5c.3 0 .5-.1.7-.3l.1-.1c0-.1.1-.1.1-.2v-.4c0-.4 0-.7.1-1 .1-.3.1-.5.2-.7.1-.2.2-.3.3-.4l.2-.2h.1c.2-.1.5 0 .7.2.3.2.5.5.8.8.2.3.5.6.9 1 .3.4.7.7.9.8l.3.2c.2.1.4.2.7.3.3.1.5.1.7.1l3.3-.1c.3 0 .6-.1.8-.2.2-.1.3-.2.3-.4v-.4c.1-.1.1-.2.1-.3z"/></svg><svg viewBox="0 0 25 25" width="25" height="25" id="vk-white" x="375" y="360"><path fill="#FFF" d="M24.9 18.6c0-.1-.1-.1-.1-.2-.4-.8-1.3-1.7-2.5-2.9-.6-.5-.9-.9-1.1-1.1-.3-.3-.3-.7-.2-1.1.1-.3.5-.8 1.2-1.7.4-.5.6-.8.8-1.1 1.5-2 2.2-3.3 2-3.8l-.1-.1c-.1-.1-.2-.1-.4-.2s-.5-.1-.8 0H19.3l-.1.1c-.1.1-.1.1-.1.2-.4 1-.9 2-1.4 2.9-.3.5-.6 1-.9 1.4-.3.4-.5.7-.7.9-.2.2-.3.3-.5.4-.1.1-.3.2-.3.1-.1 0-.2 0-.2-.1l-.3-.3c-.1-.1-.1-.3-.1-.5V11v-.6-.5-1.1-.9-.7-.6c0-.1-.1-.3-.1-.4-.1-.1-.1-.2-.3-.3-.2.1-.3.1-.5 0-.5-.1-1-.2-1.8-.2-1.6 0-2.7.1-3.1.3l-.5.5c-.1.1-.2.2 0 .3.5 0 .8.2 1.1.5l.1.2c.1.1.1.3.2.6v2.5c0 .5-.1.8-.1 1.1 0 .3-.1.5-.2.6-.1.2-.1.3-.2.3 0 0 0 .1-.1.1s-.2.1-.4.1c-.1 0-.3-.1-.4-.2-.2-.1-.4-.3-.5-.5-.2-.2-.4-.5-.6-.9-.2-.4-.5-.8-.7-1.4l-.2-.4-.5-1c-.2-.5-.4-.9-.6-1.4-.1-.2-.2-.3-.3-.4h-.1s-.1-.1-.2-.1-.2-.1-.3-.1H.8c-.4 0-.6.1-.7.2l-.1.1v.2c0 .1 0 .2.1.4.5 1.2 1.1 2.4 1.7 3.5.6 1.1 1.1 2.1 1.6 2.7.5.7.9 1.3 1.4 2 .5.6.8 1 .9 1.2.1.2.3.3.3.4l.3.3c.2.2.5.5.9.7.4.3.9.6 1.3.9.5.3 1.1.5 1.7.7.7.2 1.3.2 1.9.2h1.5c.3 0 .5-.1.7-.3l.1-.1c0-.1.1-.1.1-.2v-.4c0-.4 0-.7.1-1 .1-.3.1-.5.2-.7.1-.2.2-.3.3-.4l.2-.2h.1c.2-.1.5 0 .7.2.3.2.5.5.8.8.2.3.5.6.9 1 .3.4.7.7.9.8l.3.2c.2.1.4.2.7.3.3.1.5.1.7.1l3.3-.1c.3 0 .6-.1.8-.2.2-.1.3-.2.3-.4v-.4c.1-.1.1-.2.1-.3z"/></svg></svg>