<?xml version="1.0" encoding="utf-8"?>
<!-- Generator: Adobe Illustrator 21.0.2, SVG Export Plug-In . SVG Version: 6.00 Build 0)  -->
<svg version="1.1" id="Слой_1" xmlns="http://www.w3.org/2000/svg" xmlns:xlink="http://www.w3.org/1999/xlink" x="0px" y="0px"
	 viewBox="0 0 15 30" enable-background="new 0 0 15 30" xml:space="preserve">
<path fill="#264C5C" stroke="#264C5C" stroke-width="0.5" stroke-miterlimit="10" d="M7.4,30c-2,0-3.8-0.6-4.9-1.8
	c-1.4-1.2-2.1-2.7-2.1-4.4V4.7c0-1.2,0.6-2.4,1.5-3.3S4.4,0,5.8,0s2.8,0.5,3.9,1.4s1.6,2.1,1.6,3.3v16.7c0,1-0.4,2-1.3,2.7
	c-0.7,0.8-1.8,1.2-3.1,1.2c-1.1,0-2.1-0.4-2.9-1.2c-0.5-0.6-0.8-1.6-0.8-2.5v-14C3.2,7.3,3.5,7,3.9,7s0.7,0.2,0.7,0.5v14
	c0,1.5,1.2,2.7,2.8,2.7s2.8-1.2,2.8-2.7V4.7c0-0.9-0.6-1.8-1.3-2.6C8.1,1.5,7.1,1,5.8,1C4.7,1,3.7,1.5,2.8,2
	C1.9,2.8,1.7,3.7,1.7,4.6v19.2c0,1.4,0.5,2.6,1.8,3.6c1.1,0.9,2.5,1.5,4,1.5s2.9-0.4,4.1-1.5c1.1-0.9,1.8-2.3,1.8-3.6V7.5
	c0-0.3,0.4-0.6,0.7-0.6s0.7,0.3,0.7,0.6v16.3c0,1.7-0.7,3.2-2.1,4.4C10.9,29.4,9.2,30,7.4,30z"/>
</svg>
