<?xml version="1.0" encoding="utf-8"?>
<!-- Generator: Adobe Illustrator 21.0.2, SVG Export Plug-In . SVG Version: 6.00 Build 0)  -->
<svg version="1.1" id="Слой_1" xmlns="http://www.w3.org/2000/svg" xmlns:xlink="http://www.w3.org/1999/xlink" x="0px" y="0px"
	 viewBox="0 0 25 25" style="enable-background:new 0 0 25 25;" xml:space="preserve">
<style type="text/css">
	.st0{fill:none;stroke:#264C5C;stroke-width:1.122;stroke-linecap:round;stroke-linejoin:round;stroke-miterlimit:10;}
	.st1{fill:#264C5C;}
</style>
<rect x="1.5" y="3.6" class="st0" width="22.5" height="20.4"/>
<line class="st0" x1="1.5" y1="7.8" x2="24" y2="7.8"/>
<g>
	<line class="st0" x1="5.4" y1="0.4" x2="5.4" y2="5.3"/>
	<line class="st0" x1="20.1" y1="0.4" x2="20.1" y2="5.3"/>
</g>
<g>
	<path class="st1" d="M7.1,18.6L8,17.5c0.6,0.6,1.5,0.9,2.3,0.9c1,0,1.6-0.4,1.6-1.1c0-0.7-0.5-1-1.7-1c-0.3,0-0.9,0-1,0v-1.6
		c0.1,0,0.7,0,1,0c0.9,0,1.5-0.3,1.5-0.9c0-0.7-0.7-1-1.5-1c-0.8,0-1.5,0.3-2.1,0.9l-0.9-1.1c0.7-0.8,1.7-1.3,3.2-1.3
		c1.9,0,3.1,0.9,3.1,2.2c0,1-0.9,1.7-1.8,1.9c0.8,0.1,1.9,0.7,1.9,2c0,1.4-1.3,2.4-3.3,2.4C8.8,20,7.7,19.4,7.1,18.6z"/>
	<path class="st1" d="M16.7,19.8v-6l-1.4,1.4l-1-1.1l2.6-2.6h1.5v8.3H16.7z"/>
</g>
</svg>
