<svg xmlns="http://www.w3.org/2000/svg" viewBox="0 0 500 64"><path fill="none" stroke="#1d1d1b" stroke-width="4.252" stroke-linecap="round" stroke-linejoin="round" stroke-miterlimit="10" d="M127 12.5h16.4M122.6 18.1h20.8M131.9 23.7h11.5M148.9 7.6V29h-20.1l-3.1 4.8-3.1-4.8h-5.4V7.6z"/><path d="M91.1 42.8c1.4 4.4 2.8 8.8 4.2 13.4.6-1.6 1.1-3 1.6-4.5.1-.2-.1-.5-.2-.7-.4-.8-.9-1.5-1.1-2.3-.5-1.4.1-2.4 1.6-2.7.6-.1 1.3-.1 2 0 1.5.3 2 1.3 1.6 2.7-.3.8-.8 1.6-1.2 2.4-.1.2-.2.6-.1.8.5 1.4 1 2.7 1.5 4.3 1.4-4.6 2.8-8.9 4.2-13.3 1.3.7 2.4 1.4 3.7 2 1.5.7 3.1 1.4 4.7 1.8 2.7.7 4.1 2.4 4.3 5.1.2 1.9-.1 3.9-.1 5.8 0 .6-.4.9-.9 1.2-3.3 1.8-6.8 2.9-10.5 3.5-8 1.4-15.9.9-23.5-2-1.2-.5-2.4-1.1-3.5-1.7-.3-.1-.5-.5-.6-.8-.4-2.5-.6-4.9 0-7.4.5-1.9 1.6-3.2 3.6-3.7 3-.8 5.7-2.1 8.3-3.7l.4-.2z" fill="#1d1d1b"/><path d="M106.1 36.3c-.4 2.1-1.1 4.1-2.8 5.6-3.6 3.3-9.5 2.5-12.1-1.8-.7-1.2-.9-2.6-1.5-3.8-.6-1.2-1.5-2.2-1.8-3.5-.1-.7-.3-1.3-.4-2-.1-1.1.2-1.4 1.2-1.8-.6-1.9-.5-3.8.1-5.7 1-2.9 5-7.1 9.6-7 2.7 0 5.1.9 6.8 3.2l.4.4c1.4.4 2.1 1.5 2.5 2.9.6 2.1.3 4.3 0 6.4 0 .3 0 .6.2.8.5.7.4 1.4.3 2.1-.3 1.2-.7 2.3-1.1 3.4-.2.4-.7.7-1.1 1.1-.2-.3-.3-.3-.3-.3zM61.9 11.2v17.7H45.3l-2.6 4-2.5-4h-4.5V11.2z" fill="none" stroke="#1d1d1b" stroke-width="4.252" stroke-linecap="round" stroke-linejoin="round" stroke-miterlimit="10"/><path d="M14.2 40.3c1.2 3.6 2.3 7.3 3.5 11 .5-1.3.9-2.5 1.3-3.7.1-.2-.1-.4-.2-.6-.3-.6-.7-1.3-.9-1.9-.4-1.2.1-2 1.3-2.3.5-.1 1.1-.1 1.6 0 1.2.3 1.7 1.1 1.3 2.2-.2.7-.7 1.3-1 2-.1.2-.2.5-.1.7.4 1.1.8 2.3 1.2 3.6 1.2-3.8 2.3-7.4 3.5-11 1 .6 2 1.2 3 1.6 1.3.6 2.5 1.2 3.9 1.5 2.3.5 3.4 2 3.6 4.2.1 1.6-.1 3.2-.1 4.8 0 .5-.3.8-.7 1-2.7 1.4-5.6 2.4-8.7 2.9-6.6 1.2-13.1.8-19.4-1.7-1-.4-2-.9-2.9-1.4-.2-.1-.4-.4-.5-.6-.3-2-.5-4.1 0-6.1.4-1.6 1.3-2.6 3-3 2.4-.6 4.7-1.7 6.8-3.1.2.1.3 0 .5-.1z" fill="#1d1d1b"/><path d="M26.5 34.9c-.4 1.7-.9 3.4-2.3 4.6-3 2.8-7.9 2.1-10-1.5-.6-1-.7-2.2-1.3-3.2-.5-1-1.3-1.8-1.5-2.9-.1-.6-.3-1.1-.3-1.7-.1-.9.1-1.2 1-1.5-.5-1.6-.4-3.1.1-4.7.8-2.4 4.2-5.8 7.9-5.8 2.3 0 4.2.8 5.6 2.6.1.1.2.3.4.3 1.2.4 1.8 1.3 2.1 2.4.5 1.8.3 3.5 0 5.3 0 .2 0 .5.2.7.4.6.4 1.2.2 1.8-.2 1-.5 1.9-.9 2.8-.2.4-.6.6-.9.9-.1 0-.2-.1-.3-.1zM163.8 6.2h54.3v49.1h-54.3zM163.8 20.6h54.3" fill="none" stroke="#1d1d1b" stroke-width="4.252" stroke-linecap="round" stroke-linejoin="round" stroke-miterlimit="10"/><circle cx="172.1" cy="13.4" r="2.3"/><circle cx="179.6" cy="13.4" r="2.3"/><circle cx="187.1" cy="13.4" r="2.3"/><path fill="none" stroke="#1d1d1b" stroke-width="4.252" stroke-linecap="round" stroke-linejoin="round" stroke-miterlimit="10" d="M170.9 29.9h38.4M170.9 38.5h23M170.9 47.1h16.8"/><g fill="none" stroke="#1d1d1b" stroke-width="4.252" stroke-linecap="round" stroke-linejoin="round" stroke-miterlimit="10"><path d="M289.7 41.3v2.9c0 2.2-1.8 4-4 4H240c-2.2 0-4-1.8-4-4v-2.9l20.5-8.3 6.3 4.7 6.3-4.7 20.6 8.3z"/><path d="M289.7 27.9v13.4L269.2 33l11.8-8.8c2.1 2.3 5.3 3.7 8.7 3.7z"/><path d="M280.9 24.2c2.2 2.3 5.3 3.7 8.8 3.7 6.7 0 12.2-5.5 12.2-12.2 0-6.7-5.5-12.2-12.2-12.2-6 0-10.9 4.3-12 9.9-.1.7-.2 1.5-.2 2.3 0 3.3 1.3 6.3 3.4 8.5zM241 21.3L256.7 33l-20.5 8.3V17.4c0-2.2 1.8-4 4-4h3.5c-4.3.1-6 5.4-2.7 7.9z"/><path d="M280.9 24.2L269.2 33l-6.3 4.7-6.3-4.7L241 21.3c-3.3-2.5-1.6-7.8 2.6-7.8h34.1c-.1.7-.2 1.5-.2 2.3 0 3.2 1.3 6.2 3.4 8.4z"/></g><g fill="#1d1d1b"><path d="M285.5 20.2v-6.6l-1.5 1.5-1.1-1.2 2.9-2.9h1.7v9.1h-2zM289 19l1.1-1.3c.6.6 1.5 1 2.4 1 1.1 0 1.7-.6 1.7-1.3 0-.8-.6-1.3-1.6-1.3-.7 0-1.4.2-1.9.7l-1.3-.4v-5.2h6.2v1.7h-4.3V15c.4-.4 1.2-.8 2-.8 1.5 0 2.9 1.1 2.9 2.9 0 1.9-1.4 3.1-3.6 3.1-1.7.1-2.8-.4-3.6-1.2z"/></g><path fill="none" stroke="#1d1d1b" stroke-width="4.252" stroke-linecap="round" stroke-linejoin="round" stroke-miterlimit="10" d="M325.1 5.3h10.8v10.8h-10.8zM343.5 10.7H377M325.1 23.7h10.8v10.8h-10.8zM343.5 29H377M325.1 42h10.8v10.8h-10.8zM343.5 47.3H377M328.6 27.3l1.8 3M338.3 20.3l-7.9 10"/><path d="M47.8 20.4c0-.9.6-1.4 1.2-1.7.4-.3.8-.5.8-.9s-.3-.8-1-.8-1.2.3-1.6.8L46 16.6c.7-.8 1.8-1.3 2.9-1.3 1.7 0 2.8.9 2.8 2.1 0 1.1-.7 1.6-1.3 2.1-.5.3-.9.6-.9 1.1 0 .2.1.4.2.6l-1.5.4c-.3-.3-.4-.7-.4-1.2zm0 3c0-.6.5-1.1 1.1-1.1s1.1.5 1.1 1.1c0 .6-.5 1.1-1.1 1.1s-1.1-.5-1.1-1.1z" fill="#1d1d1b"/><g fill="#1d1d1b"><path d="M438.2 17l2-3.4s.1-.1.1-.2c.1-.1.2-.1.3-.1h.7c.1 0 .1 0 .2.1s.1.1.1.2v6.7c0 .1 0 .1-.1.2s-.1.1-.2.1h-.8c-.1 0-.1 0-.2-.1s-.1-.1-.1-.2v-4.1l-1.4 2.3c0 .1-.1.1-.1.2-.1.1-.1.1-.2.1h-.5c-.1 0-.2 0-.2-.1-.1-.1-.1-.1-.1-.2l-1.4-2.3v4.1c0 .1 0 .1-.1.2s-.1.1-.2.1h-.8c-.1 0-.1 0-.2-.1s-.1-.1-.1-.2v-6.7c0-.1 0-.1.1-.2s.1-.1.2-.1h.7c.1 0 .2 0 .3.1.1.1.1.1.1.2l1.9 3.4zM446.6 13.3c.1 0 .2 0 .2.1.1.1.1.1.1.3l2.5 6.6v.1c0 .1 0 .1-.1.2s-.1.1-.2.1h-.7c-.1 0-.2 0-.3-.1-.1-.1-.1-.1-.1-.2l-.4-1.2h-3.3l-.4 1.2c0 .1-.1.1-.1.2s-.2.1-.3.1h-.7c-.1 0-.1 0-.2-.1s-.1-.1-.1-.2v-.1l2.5-6.6c0-.1.1-.2.1-.3.1-.1.1-.1.2-.1h1.3zm.6 4.5l-1.1-3-1.1 3h2.2zM453.6 13.3c.8 0 1.5.2 2 .6.5.4.7 1 .7 1.7 0 .8-.2 1.3-.7 1.7s-1.1.6-2 .6h-1.7v2.3c0 .1 0 .1-.1.2s-.1.1-.2.1h-.8c-.1 0-.1 0-.2-.1s-.1-.1-.1-.2v-6.7c0-.1 0-.1.1-.2s.1-.1.2-.1h2.8zm-1.7 3.3h1.6c.4 0 .7-.1.9-.2s.4-.4.4-.8-.1-.7-.4-.8c-.2-.1-.6-.2-.9-.2h-1.6v2zM462.9 20.1s0 .1 0 0c.1.1.1.1.1.2s0 .1-.1.2-.1.1-.2.1h-1c-.1 0-.2 0-.3-.1l-.1-.1-2.4-2.8v2.7c0 .1 0 .1-.1.2s-.1.1-.2.1h-.8c-.1 0-.1 0-.2-.1s-.1-.1-.1-.2v-6.7c0-.1 0-.1.1-.2s.1-.1.2-.1h.8c.1 0 .1 0 .2.1s.1.1.1.2V16l2.3-2.5.2-.2c.1 0 .2-.1.3-.1h1c.1 0 .1 0 .2.1s.1.1.1.2 0 .1-.1.2l-2.8 3 2.8 3.4zM468.7 19.2c.1 0 .1 0 .2.1s.1.1.1.2v.7c0 .1 0 .1-.1.2s-.1.1-.2.1h-4.6c-.1 0-.1 0-.2-.1s-.1-.1-.1-.2v-6.7c0-.1 0-.1.1-.2s.1-.1.2-.1h4.5c.1 0 .1 0 .2.1s.1.1.1.2v.7c0 .1 0 .1-.1.2s-.1.1-.2.1h-3.4v1.7h3.1c.1 0 .1 0 .2.1s.1.1.1.2v.7c0 .1 0 .1-.1.2s-.1.1-.2.1h-3.1v1.7h3.5zM475.2 13.3c.1 0 .1 0 .2.1s.1.1.1.2v.7c0 .1 0 .1-.1.2s-.1.1-.2.1h-1.9v5.7c0 .1 0 .1-.1.2s-.1.1-.2.1h-.8c-.1 0-.1 0-.2-.1s-.1-.1-.1-.2v-5.7H470c-.1 0-.1 0-.2-.1s-.1-.1-.1-.2v-.7c0-.1 0-.1.1-.2s.1-.1.2-.1h5.2zM439.2 30.7c0-.1 0-.2.1-.2s.1-.1.2-.1h.8c.1 0 .1 0 .2.1s.1.1.1.2c0 .3-.1.6-.2.9-.1.3-.3.5-.6.8-.2.2-.6.4-.9.6-.4.1-.8.2-1.4.2-.5 0-.9-.1-1.3-.2s-.7-.3-.9-.6c-.3-.3-.5-.6-.6-.9-.1-.4-.2-.7-.3-1.2v-.9-.9c0-.4.1-.8.3-1.2.1-.4.3-.7.6-.9.3-.3.6-.5.9-.6.4-.1.8-.2 1.3-.2s1 .1 1.4.2c.4.1.7.3.9.6.2.2.4.5.6.8.1.3.2.6.2.8 0 .1 0 .2-.1.2-.1.1-.1.1-.2.1h-.8c-.1 0-.1 0-.2-.1-.1 0-.1-.1-.1-.2s-.1-.3-.1-.4c-.1-.1-.2-.2-.3-.4-.1-.1-.3-.2-.5-.3-.2-.1-.4-.1-.7-.1-.3 0-.5 0-.7.1-.2.1-.4.2-.5.3-.1.1-.2.3-.3.5-.1.2-.1.4-.1.6v1.8c0 .2.1.4.1.6.1.2.2.4.3.5.1.1.3.2.5.3.2.1.4.1.7.1.3 0 .5 0 .7-.1.2-.1.4-.2.5-.3.1-.1.2-.2.3-.4.1.2.1.1.1-.1zM447.4 32.6s.1 0 0 0c.1.1.1.1.1.2s0 .1-.1.2-.1.1-.2.1h-1c-.1 0-.2 0-.3-.1l-.1-.1-2.4-2.8v2.7c0 .1 0 .1-.1.2s-.1.1-.2.1h-.8c-.1 0-.1 0-.2-.1s-.1-.1-.1-.2V26c0-.1 0-.1.1-.2s.1-.1.2-.1h.8c.1 0 .1 0 .2.1s.1.1.1.2v2.4l2.3-2.5.2-.2c.1 0 .2-.1.3-.1h1c.1 0 .1 0 .2.1s.1.1.1.2 0 .1-.1.2l-2.8 3 2.8 3.5zM450.4 27v4c0 .3 0 .6-.1.9-.1.3-.2.5-.4.7-.2.2-.4.3-.7.4-.3.1-.6.2-.9.2h-.3c-.1 0-.1 0-.2-.1s-.1-.1-.1-.2v-.7c0-.1 0-.1.1-.2s.1-.1.2-.1h.1c.3 0 .5-.1.6-.2.1-.2.2-.4.2-.7v-5c0-.1 0-.1.1-.2s.1-.1.2-.1h4.7c.1 0 .1 0 .2.1s.1.1.1.2v6.7c0 .1 0 .1-.1.2s-.1.1-.2.1h-.8c-.1 0-.1 0-.2-.1s-.1-.1-.1-.2V27h-2.4zM459.3 25.7c.1 0 .2 0 .2.1.1.1.1.1.1.3l2.5 6.6v.1c0 .1 0 .1-.1.2s-.1.1-.2.1h-.7c-.1 0-.2 0-.3-.1s-.1-.1-.1-.2l-.4-1.2H457l-.4 1.2c0 .1-.1.1-.1.2-.1.1-.2.1-.3.1h-.7c-.1 0-.1 0-.2-.1s-.1-.1-.1-.2v-.1l2.5-6.6c0-.1.1-.2.1-.3.1-.1.1-.1.2-.1h1.3zm.6 4.6l-1.1-3-1.1 3h2.2zM468.7 25.7c.1 0 .1 0 .2.1s.1.1.1.2v5.7h.3c.1 0 .1 0 .2.1s.1.1.1.2v1.9c0 .1 0 .1-.1.2s-.1.1-.2.1h-.8c-.1 0-.1 0-.2-.1s-.1-.1-.1-.2V33H464v.9c0 .1 0 .1-.1.2s-.1.1-.2.1h-.8c-.1 0-.1 0-.2-.1s-.1-.1-.1-.2V32c0-.1 0-.1.1-.2 0-.1.1-.1.2-.1h.1c.3 0 .5-.1.6-.3.1-.2.2-.5.2-.9V26c0-.1 0-.1.1-.2s.1-.1.2-.1h4.6zm-1.1 6V27h-2.5v4.2c0 .1 0 .2-.1.3 0 .1-.1.2-.1.2h2.7zM475.3 30.7c0-.1.1-.2.1-.2.1 0 .1-.1.2-.1h.8c.1 0 .1 0 .2.1s.1.1.1.2c0 .3-.1.6-.2.9-.1.3-.3.5-.6.8-.2.2-.6.4-.9.6-.4.1-.8.2-1.4.2-.5 0-.9-.1-1.3-.2s-.7-.3-.9-.6c-.3-.3-.5-.6-.6-.9-.1-.4-.2-.7-.3-1.2v-.9-.9c0-.4.1-.8.3-1.2.1-.4.3-.7.6-.9s.6-.5.9-.6c.4-.1.8-.2 1.3-.2s1 .1 1.4.2c.4.1.7.3.9.6.2.2.4.5.6.8.1.3.2.6.2.8 0 .1 0 .2-.1.2-.1.1-.1.1-.2.1h-.8c-.1 0-.1 0-.2-.1-.1 0-.1-.1-.1-.2s-.1-.3-.1-.4c-.1-.1-.2-.2-.3-.4-.1-.1-.3-.2-.5-.3-.2-.1-.4-.1-.7-.1-.3 0-.5 0-.7.1-.2.1-.4.2-.5.3-.1.1-.2.3-.3.5-.1.2-.1.4-.1.6v1.8c0 .2.1.4.1.6.1.2.2.4.3.5.1.1.3.2.5.3.2.1.4.1.7.1.3 0 .5 0 .7-.1.2-.1.4-.2.5-.3.1-.1.2-.2.3-.4s.1.1.1-.1zM483.5 32.6c.1.1.1.1.1.2s0 .1-.1.2-.1.1-.2.1h-1c-.1 0-.2 0-.3-.1l-.1-.1-2.4-2.8v2.7c0 .1 0 .1-.1.2s-.1.1-.2.1h-.8c-.1 0-.1 0-.2-.1s-.1-.1-.1-.2V26c0-.1 0-.1.1-.2s.1-.1.2-.1h.8c.1 0 .1 0 .2.1s.1.1.1.2v2.4l2.3-2.5.2-.2c.1 0 .2-.1.3-.1h1c.1 0 .1 0 .2.1s.1.1.1.2 0 .1-.1.2l-2.8 3 2.8 3.5zM483.8 28.5c0-.4.1-.8.2-1.1.1-.3.3-.6.6-.9.2-.3.6-.5.9-.6.4-.1.8-.2 1.3-.2s.9.1 1.3.2.7.3.9.6l.6.9c.1.3.2.7.2 1.1V30.3c0 .4-.1.8-.2 1.1-.1.3-.3.6-.6.9-.2.3-.6.5-.9.6-.4.1-.8.2-1.3.2s-1-.1-1.3-.2c-.4-.1-.7-.3-.9-.6l-.6-.9c-.1-.3-.2-.7-.2-1.1v-.4-.5-.5-.4zm4.7 0c0-.5-.2-.9-.5-1.2-.3-.3-.7-.4-1.2-.4s-.9.1-1.2.4c-.3.3-.5.7-.5 1.2v1.8c0 .5.2.9.5 1.2.3.3.7.4 1.2.4s.9-.1 1.2-.4c.3-.3.5-.7.5-1.2v-.9-.9zM491.6 33c-.1 0-.1 0-.2-.1s-.1-.1-.1-.2V26c0-.1 0-.1.1-.2s.1-.1.2-.1h.8c.1 0 .1 0 .2.1s.1.1.1.2v4.3l2.9-4.3.1-.1c.1-.1.2-.1.3-.1h.7c.1 0 .1 0 .2.1s.1.1.1.2v6.7c0 .1 0 .1-.1.2s-.1.1-.2.1h-.8c-.1 0-.1 0-.2-.1s-.1-.1-.1-.2v-4.3l-2.9 4.3-.1.1c-.1.1-.2.1-.3.1h-.7zm3.3-7.9c.2-.1.4-.2.5-.3.1-.1.2-.3.3-.5.1-.2.1-.3.1-.5 0-.1 0-.1-.1-.1l-.1-.1h-.6c-.1 0-.1 0-.1.1l-.1.1c0 .2 0 .3-.1.4-.1.1-.2.1-.4.1s-.3 0-.4-.1c-.1-.1-.1-.2-.1-.4 0-.1 0-.1-.1-.1l-.1-.1h-.6c-.1 0-.1 0-.1.1l-.1.1c0 .2 0 .3.1.5s.1.3.3.5c.1.1.3.2.5.3.2.1.4.1.7.1s.3 0 .5-.1zM436.8 39.5v4c0 .3 0 .6-.1.9-.1.3-.2.5-.4.7-.2.2-.4.3-.7.4-.3.1-.6.2-.9.2h-.3c-.1 0-.1 0-.2-.1s-.1-.1-.1-.2v-.7c0-.1 0-.1.1-.2s.1-.1.2-.1h.1c.3 0 .5-.1.6-.2.1-.2.2-.4.2-.7v-4.9c0-.1 0-.1.1-.2s.1-.1.2-.1h4.7c.1 0 .1 0 .2.1s.1.1.1.2v6.7c0 .1 0 .1-.1.2s-.1.1-.2.1h-.8c-.1 0-.1 0-.2-.1s-.1-.1-.1-.2v-5.7h-2.4zM442 40.9c0-.4.1-.8.2-1.1.1-.3.3-.6.6-.9s.6-.5.9-.6c.4-.1.8-.2 1.3-.2s.9.1 1.3.2.7.3.9.6l.6.9c.1.3.2.7.2 1.1V42.7c0 .4-.1.8-.2 1.1-.1.3-.3.6-.6.9s-.6.5-.9.6c-.4.1-.8.2-1.3.2s-1-.1-1.3-.2c-.4-.1-.7-.3-.9-.6l-.6-.9c-.1-.3-.2-.7-.2-1.1v-.4-.5-.5-.4zm4.7.1c0-.5-.2-.9-.5-1.2-.3-.3-.7-.4-1.2-.4s-.9.1-1.2.4c-.3.3-.5.7-.5 1.2v1.8c0 .5.2.9.5 1.2.3.3.7.4 1.2.4s.9-.1 1.2-.4c.3-.3.5-.7.5-1.2v-.9c0-.3.1-.7 0-.9zM454.3 38.2c.1 0 .1 0 .2.1s.1.1.1.2v.7c0 .1 0 .1-.1.2s-.1.1-.2.1h-3.4v5.7c0 .1 0 .1-.1.2s-.1.1-.2.1h-.8c-.1 0-.1 0-.2-.1s-.1-.1-.1-.2v-6.7c0-.1 0-.1.1-.2s.1-.1.2-.1h4.5zM455.8 45.5c-.1 0-.1 0-.2-.1s-.1-.1-.1-.2v-6.7c0-.1 0-.1.1-.2s.1-.1.2-.1h.8c.1 0 .1 0 .2.1s.1.1.1.2v4.3l2.9-4.3.1-.1c.1-.1.2-.1.3-.1h.7c.1 0 .1 0 .2.1s.1.1.1.2v6.7c0 .1 0 .1-.1.2s-.1.1-.2.1h-.8c-.1 0-.1 0-.2-.1s-.1-.1-.1-.2V41l-2.9 4.3-.1.1c-.1.1-.2.1-.3.1h-.7zM467.4 43.2c0-.1 0-.2.1-.2s.1-.1.2-.1h.8c.1 0 .1 0 .2.1s.1.1.1.2c0 .3-.1.6-.2.9-.1.3-.3.5-.6.8-.2.2-.6.4-.9.6-.4.1-.8.2-1.4.2-.5 0-.9-.1-1.3-.2s-.7-.3-.9-.6c-.3-.3-.5-.6-.6-.9-.1-.4-.2-.7-.3-1.2v-.9-.9c0-.4.1-.8.3-1.2.1-.4.3-.7.6-.9.3-.3.6-.5.9-.6.4-.1.8-.2 1.3-.2s1 .1 1.4.2c.4.1.7.3.9.6.2.2.4.5.6.8.1.3.2.6.2.8 0 .1 0 .2-.1.2-.1.1-.1.1-.2.1h-.8c-.1 0-.1 0-.2-.1-.1 0-.1-.1-.1-.2s-.1-.3-.1-.4c-.1-.1-.2-.2-.3-.4-.1-.1-.3-.2-.5-.3-.2-.1-.4-.1-.7-.1-.3 0-.5 0-.7.1-.2.1-.4.2-.5.3-.1.1-.2.3-.3.5-.1.2-.1.4-.1.6v1.8c0 .2.1.4.1.6.1.2.2.4.3.5.1.1.3.2.5.3.2.1.4.1.7.1.3 0 .5 0 .7-.1.2-.1.4-.2.5-.3.1-.1.2-.2.3-.4 0 .2.1 0 .1-.1zM474.9 38.2c.1 0 .1 0 .2.1s.1.1.1.2v.7c0 .1 0 .1-.1.2s-.1.1-.2.1H473v5.7c0 .1 0 .1-.1.2s-.1.1-.2.1h-.8c-.1 0-.1 0-.2-.1s-.1-.1-.1-.2v-5.7h-1.9c-.1 0-.1 0-.2-.1s-.1-.1-.1-.2v-.7c0-.1 0-.1.1-.2s.1-.1.2-.1h5.2zM476.5 45.5c-.1 0-.1 0-.2-.1s-.1-.1-.1-.2v-6.7c0-.1 0-.1.1-.2s.1-.1.2-.1h.8c.1 0 .1 0 .2.1s.1.1.1.2v4.3l2.9-4.3.1-.1c.1-.1.2-.1.3-.1h.7c.1 0 .1 0 .2.1s.1.1.1.2v6.7c0 .1 0 .1-.1.2s-.1.1-.2.1h-.8c-.1 0-.1 0-.2-.1s-.1-.1-.1-.2V41l-2.9 4.3-.1.1c-.1.1-.2.1-.3.1h-.7zM489 45.1c.1 0 .1 0 0 0 .1.1.1.1.1.2s0 .1-.1.2-.1.1-.2.1h-1c-.1 0-.2 0-.3-.1l-.1-.1-2.4-2.8v2.7c0 .1 0 .1-.1.2s-.1.1-.2.1h-.8c-.1 0-.1 0-.2-.1s-.1-.1-.1-.2v-6.7c0-.1 0-.1.1-.2s.1-.1.2-.1h.8c.1 0 .1 0 .2.1s.1.1.1.2V41l2.3-2.5.2-.2c.1 0 .2-.1.3-.1h1c.1 0 .1 0 .2.1s.1.1.1.2 0 .1-.1.2l-2.8 3 2.8 3.4zM490.3 45.5c-.1 0-.1 0-.2-.1s-.1-.1-.1-.2v-6.7c0-.1 0-.1.1-.2s.1-.1.2-.1h.8c.1 0 .1 0 .2.1s.1.1.1.2v4.3l2.9-4.3.1-.1c.1-.1.2-.1.3-.1h.7c.1 0 .1 0 .2.1s.1.1.1.2v6.7c0 .1 0 .1-.1.2s-.1.1-.2.1h-.8c-.1 0-.1 0-.2-.1s-.1-.1-.1-.2V41l-2.9 4.3-.1.1c-.1.1-.2.1-.3.1h-.7z"/></g><g fill="#1d1d1b"><path d="M423.1 19.7l-18.4-6.4c-.2-.1-.4-.1-.6 0l-18.4 6.4c-.4.1-.6.5-.6.9v24.2c0 .5.4.9.9.9h36.8c.5 0 .9-.4.9-.9V20.5c0-.3-.3-.7-.6-.8zm-10.2 12.1h-17.2v-1.3h17.2v1.3zm-17.2 1.9h17.2V35h-17.2v-1.3zm17.2-4.9h-17.2v-.9h17.2v.9zm-17.2 15v-7.1h17.2v7.1h-17.2zm26.2 0h-7.1V27c0-.5-.4-.9-.9-.9h-19c-.5 0-.9.4-.9.9v16.8h-7.1V21.2l17.5-6.1 17.5 6.1v22.6z"/><path d="M399.3 21c0 .5.4.9.9.9h8.3c.5 0 .9-.4.9-.9s-.4-.9-.9-.9h-8.3c-.5 0-.9.4-.9.9z"/></g></svg>